<?xml version="1.0" encoding="UTF-8" standalone="no"?>
<!-- Created with Inkscape (http://www.inkscape.org/) -->

<svg
   xmlns:dc="http://purl.org/dc/elements/1.1/"
   xmlns:cc="http://creativecommons.org/ns#"
   xmlns:rdf="http://www.w3.org/1999/02/22-rdf-syntax-ns#"
   xmlns:svg="http://www.w3.org/2000/svg"
   xmlns="http://www.w3.org/2000/svg"
   xmlns:sodipodi="http://sodipodi.sourceforge.net/DTD/sodipodi-0.dtd"
   xmlns:inkscape="http://www.inkscape.org/namespaces/inkscape"
   width="400"
   height="400"
   viewBox="0 0 400 400.00001"
   id="svg4270"
   version="1.1"
   inkscape:version="0.91 r13725"
   sodipodi:docname="logo.svg">
  <defs
     id="defs4272" />
  <sodipodi:namedview
     id="base"
     pagecolor="#ffffff"
     bordercolor="#666666"
     borderopacity="1.0"
     inkscape:pageopacity="0.0"
     inkscape:pageshadow="2"
     inkscape:zoom="0.98994949"
     inkscape:cx="239.09749"
     inkscape:cy="224.70625"
     inkscape:document-units="px"
     inkscape:current-layer="layer1"
     showgrid="false"
     units="px"
     inkscape:window-width="1366"
     inkscape:window-height="705"
     inkscape:window-x="-8"
     inkscape:window-y="-8"
     inkscape:window-maximized="1" />
  <metadata
     id="metadata4275">
    <rdf:RDF>
      <cc:Work
         rdf:about="">
        <dc:format>image/svg+xml</dc:format>
        <dc:type
           rdf:resource="http://purl.org/dc/dcmitype/StillImage" />
        <dc:title></dc:title>
      </cc:Work>
    </rdf:RDF>
  </metadata>
  <g
     inkscape:label="Livello 1"
     inkscape:groupmode="layer"
     id="layer1"
     transform="translate(0,-652.36216)">
    <rect
       style="opacity:1;fill:#030303;fill-opacity:1;stroke:none;stroke-width:1;stroke-linecap:butt;stroke-linejoin:miter;stroke-miterlimit:4;stroke-dasharray:none;stroke-opacity:1"
       id="rect4824"
       width="400"
       height="400"
       x="0"
       y="652.36218" />
    <path
       style="fill:#383838;fill-opacity:1"
       d="m 22.796013,675.15836 0,354.40764 354.407977,0 0,-354.40764 -354.407977,0 0,0 z"
       id="path4832" />
    <path
       style="fill:#ffffff;fill-opacity:1"
       d="M 173.18359 84.757812 L 67.6875 267.57422 L 89.128906 304.78711 L 179.79883 147.7832 L 195.57031 175.01367 L 234.19922 241.9375 L 264.79688 241.9375 L 174.00977 84.757812 L 173.18359 84.757812 z M 185.58789 91.375 L 276.375 248.61328 L 244.89258 248.61328 L 167.57227 248.61328 L 152.33203 275.01562 L 333.78906 275.01562 L 333.79102 275.01562 L 334.20312 274.18945 L 228.58789 91.375 L 185.58789 91.375 z M 179.50391 160.95703 L 88.716797 318.13672 L 89.128906 318.84375 L 300.17969 318.84375 L 321.79883 281.51562 L 140.3418 281.51562 L 156.11328 254.28516 L 194.74414 187.36133 L 179.50391 160.95703 z "
       transform="translate(0,652.36216)"
       id="path4830" />
  </g>
</svg>
